<?xml version="1.0" standalone="no"?>
<!DOCTYPE svg PUBLIC "-//W3C//DTD SVG 20010904//EN"
 "http://www.w3.org/TR/2001/REC-SVG-20010904/DTD/svg10.dtd">
<svg version="1.0" xmlns="http://www.w3.org/2000/svg"
 width="256.000000pt" height="256.000000pt" viewBox="0 0 256.000000 256.000000"
 preserveAspectRatio="xMidYMid meet">

<g transform="translate(0.000000,256.000000) scale(0.100000,-0.100000)"
fill="#000000" stroke="none">
<path d="M407 2483 c-4 -3 -7 -168 -7 -365 l0 -358 215 0 215 0 0 161 0 161
93 -4 c99 -5 133 -17 181 -64 40 -40 54 -72 66 -150 19 -119 -7 -247 -62 -303
-64 -66 -63 -66 -398 -71 l-305 -5 0 -200 0 -200 250 -3 c295 -4 449 9 554 44
203 68 344 224 403 443 28 103 30 333 5 436 -54 214 -201 378 -398 440 -42 13
-123 29 -179 35 -112 11 -623 14 -633 3z"/>
<path d="M1652 1124 c-90 -52 -167 -94 -172 -94 -5 0 -21 22 -36 49 l-26 49
-57 -28 c-31 -16 -78 -34 -106 -41 -27 -7 -52 -14 -54 -15 -2 -2 91 -177 207
-391 115 -213 235 -436 267 -495 31 -60 60 -108 63 -108 4 0 51 26 104 58 l97
58 -60 109 c-32 61 -59 113 -59 116 0 3 72 48 160 98 88 51 162 96 165 101 5
8 -90 196 -104 204 -4 3 -80 -37 -169 -89 -89 -52 -165 -95 -169 -95 -4 0 -32
45 -61 99 l-52 99 32 20 c18 11 89 52 158 92 69 40 130 77 136 82 8 6 -4 38
-43 111 -30 56 -56 103 -57 104 -1 1 -75 -41 -164 -93z"/>
</g>
</svg>
